<svg xmlns="http://www.w3.org/2000/svg" width="394" height="92" viewBox="0 0 394 92">
  <g id="Gruppe_1" data-name="Gruppe 1" transform="translate(-886 -547)">
    <rect id="Rechteck_1" data-name="Rechteck 1" width="394" height="92" transform="translate(886 547)" fill="#fff"/>
    <g id="szenario_schriftzug_gidhub" transform="translate(283 560)">
      <path id="Fill-1" d="M668.414,62c10.249,0,17.284-5.529,17.284-14.043,0-6.671-4.43-11.147-11.378-12.639l-8.078-1.755c-3.387-.7-5.211-2.019-5.211-4.388,0-2.633,2.432-4.476,6.6-4.476,3.648,0,6.167,1.931,6.427,6.056H685c-.434-9.391-7.9-14.043-17.284-14.043-9.728,0-16.85,5.266-16.85,13.6,0,6.758,4.517,11.147,11.552,12.639l7.991,1.755c3.127.614,4.69,2.019,4.69,4.476,0,2.9-2.345,4.827-6.688,4.827-4.517,0-6.775-2.37-7.122-6.846H650C650.347,56.383,656.949,62,668.414,62Zm55.936-.878V51.643H704.285L723.915,26.1V17.588H691.778v9.479h18.5L690.823,52.609v8.514ZM748.5,62c9.815,0,17.458-5.354,19.108-15.009H756.052c-.782,4.564-3.735,6.583-7.47,6.583-5.038,0-8.425-4.564-8.772-10.971h28.4c.087-1.492.087-3.423.087-3.774,0-13.868-7.9-22.118-19.716-22.118-11.986,0-19.89,8.953-19.89,22.645,0,14.658,8.686,22.645,19.8,22.645Zm.174-36.951c4.6,0,7.991,3.774,8.251,9.742H739.983c.695-5.968,4.082-9.742,8.686-9.742Zm62.276,36.073V33.212c0-10.094-4.517-16.5-13.376-16.5-5.733,0-9.467,2.984-11.986,7.109V17.588H775.247V61.122h10.944V36.2c0-5.617,2.345-10.357,7.383-10.357,4.256,0,6.427,2.721,6.427,9.391V61.122Zm43.078,0V32.6c0-10.883-6.688-15.886-17.719-15.886-10.336,0-17.111,5.178-17.458,14.043h10.944c.347-4.213,2.606-6.056,6.514-6.056,4.343,0,6.948,1.755,6.948,6.758V33.3l-12.594,2.37c-7.383,1.4-13.2,5.968-13.2,13.955,0,7.812,5.211,12.376,13.289,12.376,5.125,0,10.423-2.106,13.2-7.373v6.495ZM833.873,53.75c-3.648,0-5.819-1.931-5.819-5,0-2.809,2-5.178,6.6-6.056l8.6-1.58v1.931c0,7.46-4.516,10.708-9.38,10.708Zm39.607,7.373V39.794c0-7.46,3.561-11.673,9.294-11.673a27.231,27.231,0,0,1,3.822.176V16.8h-1.216c-6.167,0-10.423,2.721-12.507,10.006V17.588H862.536V61.122Zm18.761,0h10.944V17.588H892.24Zm-.695-50.2h12.334V1H891.546ZM930.023,62C941.749,62,950,53.4,950,39.355s-8.251-22.645-19.977-22.645-19.977,8.6-19.977,22.645S918.3,62,930.023,62Zm0-8.777c-5.646,0-8.6-5.705-8.6-13.868s2.953-13.868,8.6-13.868c5.559,0,8.6,5.705,8.6,13.868s-3.04,13.868-8.6,13.868Z" fill-rule="evenodd"/>
    </g>
  </g>
</svg>
