<?xml version="1.0" encoding="UTF-8"?>
<svg width="1600px" height="63px" viewBox="0 0 1600 63" version="1.1" xmlns="http://www.w3.org/2000/svg" xmlns:xlink="http://www.w3.org/1999/xlink">
    <title>szenario_schriftzug_gidhub</title>
    <g id="szenario_schriftzug_gidhub" stroke="none" stroke-width="1" fill="none" fill-rule="evenodd">
        <path d="M668.413574,62 C678.662639,62 685.698014,56.4705036 685.698014,47.9568345 C685.698014,41.2863309 681.268333,36.8100719 674.319815,35.3179856 L666.242162,33.5625899 C662.854759,32.8604317 661.030773,31.5438849 661.030773,29.1741007 C661.030773,26.5410072 663.462755,24.6978417 667.631866,24.6978417 C671.279838,24.6978417 673.798676,26.628777 674.059245,30.7539568 L685.003162,30.7539568 C684.568879,21.3625899 677.099222,16.7107914 667.718722,16.7107914 C657.990796,16.7107914 650.868565,21.9769784 650.868565,30.3151079 C650.868565,37.0733813 655.385102,41.4618705 662.420477,42.9539568 L670.411273,44.7093525 C673.538106,45.323741 675.101523,46.7280576 675.101523,49.1856115 C675.101523,52.0820144 672.756398,54.0129496 668.413574,54.0129496 C663.897037,54.0129496 661.638768,51.6431655 661.291343,47.1669065 L650,47.1669065 C650.347426,56.3827338 656.948518,62 668.413574,62 L668.413574,62 Z M724.349148,61.1223022 L724.349148,51.6431655 L704.285301,51.6431655 L723.914865,26.1021583 L723.914865,17.5884892 L691.777967,17.5884892 L691.777967,27.0676259 L710.278398,27.0676259 L690.822546,52.6086331 L690.822546,61.1223022 L724.349148,61.1223022 Z M748.49525,62 C758.310032,62 765.953402,56.6460432 767.603675,46.9913669 L756.051763,46.9913669 C755.270055,51.5553957 752.316935,53.5741007 748.582106,53.5741007 C743.54443,53.5741007 740.157027,49.0100719 739.809601,42.6028777 L768.211671,42.6028777 C768.298527,41.1107914 768.298527,39.1798561 768.298527,38.828777 C768.298527,24.9611511 760.394587,16.7107914 748.582106,16.7107914 C736.595912,16.7107914 728.691972,25.6633094 728.691972,39.3553957 C728.691972,54.0129496 737.37762,62 748.49525,62 L748.49525,62 Z M748.668963,25.0489209 C753.272356,25.0489209 756.659759,28.8230216 756.920328,34.7913669 L739.983314,34.7913669 C740.678166,28.8230216 744.065569,25.0489209 748.668963,25.0489209 L748.668963,25.0489209 Z M810.945059,61.1223022 L810.945059,33.2115108 C810.945059,23.1179856 806.428522,16.7107914 797.569161,16.7107914 C791.836634,16.7107914 788.101805,19.694964 785.582967,23.8201439 L785.582967,17.5884892 L775.247046,17.5884892 L775.247046,61.1223022 L786.190962,61.1223022 L786.190962,36.1956835 C786.190962,30.5784173 788.536087,25.8388489 793.573763,25.8388489 C797.829731,25.8388489 800.001143,28.5597122 800.001143,35.2302158 L800.001143,61.1223022 L810.945059,61.1223022 Z M854.023588,61.1223022 L854.023588,32.5971223 C854.023588,21.7136691 847.335639,16.7107914 836.304866,16.7107914 C825.968945,16.7107914 819.194139,21.8892086 818.846714,30.7539568 L829.79063,30.7539568 C830.138056,26.5410072 832.396325,24.6978417 836.304866,24.6978417 C840.64769,24.6978417 843.253385,26.4532374 843.253385,31.4561151 L843.253385,33.2992806 L830.659195,35.6690647 C823.276394,37.0733813 817.45701,41.6374101 817.45701,49.6244604 C817.45701,57.4359712 822.668399,62 830.746051,62 C835.870584,62 841.168829,59.8935252 843.948237,54.6273381 L843.948237,61.1223022 L854.023588,61.1223022 Z M833.872885,53.7496403 C830.224913,53.7496403 828.053501,51.818705 828.053501,48.7467626 C828.053501,45.9381295 830.0512,43.5683453 834.654593,42.6906475 L843.253385,41.1107914 L843.253385,43.0417266 C843.253385,50.5021583 838.736848,53.7496403 833.872885,53.7496403 L833.872885,53.7496403 Z M873.47944,61.1223022 L873.47944,39.7942446 C873.47944,32.3338129 877.040556,28.1208633 882.773084,28.1208633 C884.162787,28.1208633 885.291922,28.1208633 886.594769,28.2964029 L886.594769,16.7985612 L885.378778,16.7985612 C879.211968,16.7985612 874.956,19.5194245 872.871445,26.8043165 L872.871445,17.5884892 L862.535524,17.5884892 L862.535524,61.1223022 L873.47944,61.1223022 Z M892.24044,61.1223022 L903.184357,61.1223022 L903.184357,17.5884892 L892.24044,17.5884892 L892.24044,61.1223022 Z M891.545588,10.9179856 L903.879209,10.9179856 L903.879209,1 L891.545588,1 L891.545588,10.9179856 Z M930.023009,62 C941.748634,62 950,53.3985612 950,39.3553957 C950,25.3122302 941.748634,16.7107914 930.023009,16.7107914 C918.297384,16.7107914 910.046019,25.3122302 910.046019,39.3553957 C910.046019,53.3985612 918.297384,62 930.023009,62 L930.023009,62 Z M930.023009,53.2230216 C924.377338,53.2230216 921.424218,47.5179856 921.424218,39.3553957 C921.424218,31.1928058 924.377338,25.4877698 930.023009,25.4877698 C935.581824,25.4877698 938.621801,31.1928058 938.621801,39.3553957 C938.621801,47.5179856 935.581824,53.2230216 930.023009,53.2230216 L930.023009,53.2230216 Z" id="Fill-1" fill="#000000"></path>
    </g>
</svg>